<svg width="27" height="23" viewBox="0 0 27 23" fill="none" xmlns="http://www.w3.org/2000/svg">
<path d="M15 0C12.0163 0 9.15483 1.18526 7.04505 3.29505C4.93526 5.40483 3.75 8.26631 3.75 11.25H0L4.8625 16.1125L4.95 16.2875L10 11.25H6.25C6.25 6.4125 10.1625 2.5 15 2.5C19.8375 2.5 23.75 6.4125 23.75 11.25C23.75 16.0875 19.8375 20 15 20C12.5875 20 10.4 19.0125 8.825 17.425L7.05 19.2C8.09177 20.2475 9.33061 21.0784 10.6951 21.6448C12.0595 22.2112 13.5226 22.5018 15 22.5C17.9837 22.5 20.8452 21.3147 22.955 19.2049C25.0647 17.0952 26.25 14.2337 26.25 11.25C26.25 8.26631 25.0647 5.40483 22.955 3.29505C20.8452 1.18526 17.9837 4.44604e-08 15 0V0ZM13.75 6.25V12.5L19.0625 15.65L20.025 14.05L15.625 11.4375V6.25H13.75Z" fill="#FDB623"/>
</svg>
