<svg width="23" height="23" viewBox="0 0 23 23" fill="none" xmlns="http://www.w3.org/2000/svg">
<path d="M15 22.5H12.5V20H15V22.5ZM12.5 13.75H10V20H12.5V13.75ZM22.5 11.25H20V16.25H22.5V11.25ZM20 8.75H17.5V11.25H20V8.75ZM5 11.25H2.5V13.75H5V11.25ZM2.5 8.75H0V11.25H2.5V8.75ZM11.25 2.5H13.75V0H11.25V2.5ZM1.875 1.875V5.625H5.625V1.875H1.875ZM6.25 7.5H1.25C0.5625 7.5 0 6.9375 0 6.25V1.25C0 0.5625 0.5625 0 1.25 0H6.25C6.9375 0 7.5 0.5625 7.5 1.25V6.25C7.5 6.9375 6.9375 7.5 6.25 7.5ZM1.875 16.875V20.625H5.625V16.875H1.875ZM6.25 22.5H1.25C0.5625 22.5 0 21.9375 0 21.25V16.25C0 15.5625 0.5625 15 1.25 15H6.25C6.9375 15 7.5 15.5625 7.5 16.25V21.25C7.5 21.9375 6.9375 22.5 6.25 22.5ZM16.875 1.875V5.625H20.625V1.875H16.875ZM21.25 7.5H16.25C15.5625 7.5 15 6.9375 15 6.25V1.25C15 0.5625 15.5625 0 16.25 0H21.25C21.9375 0 22.5 0.5625 22.5 1.25V6.25C22.5 6.9375 21.9375 7.5 21.25 7.5ZM20 20V16.25H15V18.75H17.5V22.5H22.5V20H20ZM17.5 11.25H12.5V13.75H17.5V11.25ZM12.5 8.75H5V11.25H7.5V13.75H10V11.25H12.5V8.75ZM13.75 7.5V5H11.25V2.5H8.75V7.5H13.75ZM4.6875 2.8125H2.8125V4.6875H4.6875V2.8125ZM4.6875 17.8125H2.8125V19.6875H4.6875V17.8125ZM19.6875 2.8125H17.8125V4.6875H19.6875V2.8125Z" fill="#D9D9D9"/>
</svg>
