<svg width="28" height="30" viewBox="0 0 28 30" fill="none" xmlns="http://www.w3.org/2000/svg">
<path d="M21.5833 0H3.08333C2.26558 0 1.48132 0.34241 0.903087 0.951903C0.32485 1.5614 0 2.38805 0 3.25V26C0 26.862 0.32485 27.6886 0.903087 28.2981C1.48132 28.9076 2.26558 29.25 3.08333 29.25H24.6667C26.3625 29.25 27.75 27.7875 27.75 26V6.5L21.5833 0ZM13.875 26C11.3158 26 9.25 23.8225 9.25 21.125C9.25 18.4275 11.3158 16.25 13.875 16.25C16.4342 16.25 18.5 18.4275 18.5 21.125C18.5 23.8225 16.4342 26 13.875 26ZM18.5 9.75H3.08333V3.25H18.5V9.75Z" fill="#333333"/>
</svg>
