<svg width="40" height="29" viewBox="0 0 40 29" fill="none" xmlns="http://www.w3.org/2000/svg">
<path d="M20 20.5C21.1033 20.5 22.1188 20.7025 23.0518 21.1035V21.1045C23.837 21.443 24.5373 21.8852 25.1562 22.4297L20 27.624L14.8428 22.4297C15.4619 21.885 16.1627 21.4431 16.9482 21.1045L16.9473 21.1035C17.8805 20.7023 18.8963 20.5 20 20.5ZM20 10.5C22.4904 10.5 24.8036 10.9734 26.9453 11.916C28.9402 12.7945 30.6926 13.9624 32.207 15.4189L29.4092 18.2168C28.2256 17.1137 26.877 16.2341 25.3643 15.582C23.688 14.8596 21.8981 14.5 20 14.5C18.1019 14.5 16.312 14.8596 14.6357 15.582C13.1249 16.2332 11.7772 17.1108 10.5947 18.2119L7.79199 15.3428C9.30572 13.9115 11.0581 12.7628 13.0537 11.8975V11.8965C15.1948 10.9666 17.5087 10.5 20 10.5ZM20 0.5C23.8806 0.5 27.4933 1.22427 30.8438 2.66797C34.0469 4.0482 36.8613 5.93665 39.292 8.33301L36.4951 11.1299C34.3934 9.11239 31.9813 7.51933 29.2607 6.35254L29.2598 6.35156C26.3746 5.11596 23.2862 4.5 20 4.5C16.7138 4.5 13.6254 5.11596 10.7402 6.35156L10.7393 6.35254C8.01844 7.51943 5.60574 9.11216 3.50391 11.1299L0.707031 8.33301C3.13779 5.93642 5.95288 4.0483 9.15625 2.66797C12.5067 1.22427 16.1194 0.5 20 0.5Z" fill="#D9D9D9" stroke="black"/>
</svg>
